<?xml version="1.0" encoding="UTF-8"?>
<svg xmlns="http://www.w3.org/2000/svg" viewBox="0 0 100 100">
  <!-- Background circle -->
  <circle cx="50" cy="50" r="48" fill="#2563eb" />
  
  <!-- Robot head -->
  <rect x="20" y="25" width="60" height="50" rx="10" ry="10" fill="#fff" />
  
  <!-- Robot antenna -->
  <rect x="48" y="15" width="4" height="10" fill="#fff" />
  <circle cx="50" cy="12" r="4" fill="#ff4081" />
  
  <!-- Robot eyes -->
  <circle cx="35" cy="40" r="7" fill="#2563eb" />
  <circle cx="65" cy="40" r="7" fill="#2563eb" />
  <circle cx="33" cy="38" r="2" fill="#fff" />
  <circle cx="63" cy="38" r="2" fill="#fff" />
  
  <!-- Robot mouth -->
  <path d="M35,60 Q50,70 65,60" stroke="#2563eb" stroke-width="4" fill="none" />
  
  <!-- Sound waves -->
  <path d="M80,40 Q90,50 80,60" stroke="#ff4081" stroke-width="3" fill="none" />
  <path d="M85,35 Q100,50 85,65" stroke="#ff4081" stroke-width="3" fill="none" />
  
  <!-- Mic symbol -->
  <circle cx="20" cy="80" r="10" fill="#ff4081" />
  <rect x="17" y="73" width="6" height="14" rx="3" ry="3" fill="#fff" />
  <path d="M13,80 L27,80" stroke="#fff" stroke-width="2" />
  <path d="M20,87 L20,92" stroke="#fff" stroke-width="2" />
  <path d="M15,92 L25,92" stroke="#fff" stroke-width="2" />
</svg>